# xmcd
#
# Track frame offsets: 
#        150
#        12094
#        27056
#        40405
#        56823
#        78422
#        93934
#        107554
#        122231
#        135030
#        149329
#        171092
#        187427
#        198640
#        206358
#
# Disc length: 2948 seconds
#
# Revision: 0
# Processed by: cddbd v1.5.2PL0 Copyright (c) Steve Scherf et al.
# Submitted via: ExactAudioCopy v0.99pb4
#
DISCID=cd0b820f
DTITLE=Sum 41 - All The Good Sh**
DYEAR=2009
DGENRE=Punk Rock
TTITLE0=Still Waiting
TTITLE1=The Hell Song
TTITLE2=Fat Lip
TTITLE3=We're All To Blame
TTITLE4=Walking Disaster
TTITLE5=In Too Deep
TTITLE6=Pieces
TTITLE7=Underclass Hero
TTITLE8=Motivation
TTITLE9=Makes No Diffrence (Alternate Version)
TTITLE10=With Me
TTITLE11=Handle This
TTITLE12=Over My Head (Better Off Dead)
TTITLE13=Pain For Pleasure
TTITLE14=The Hell Song (Live)
EXTD=
EXTT0=
EXTT1=
EXTT2=
EXTT3=
EXTT4=
EXTT5=
EXTT6=
EXTT7=
EXTT8=
EXTT9=
EXTT10=
EXTT11=
EXTT12=
EXTT13=
EXTT14=
PLAYORDER=
